# xmcd
#
# Track frame offsets:
#	150
#	16081
#	35642
#	59331
#	75987
#	91790
#	112427
#	133477
#	152000
#	168100
#	184351
#	199413
#	217912
#	234845
#	249048
#
# Disc length: 3563 seconds
#
# Revision: 3
# Processed by: cddbd v1.5.2PL0 Copyright (c) Steve Scherf et al.
# Submitted via: EasyCDDAExtractor 15.3.0.1
#
DISCID=c10de90f
DTITLE=Paulina Rubio - 30 Exitos Insuperables - CD 2
DYEAR=2003
DGENRE=Latin
TTITLE0=Nieva, Nieva
TTITLE1=Sera Entre Tu Y Yo
TTITLE2=Sola
TTITLE3=Asunto De Dos
TTITLE4=Nada De Ti
TTITLE5=Sangre Latina
TTITLE6=Siempre Tuya Desde La Raiz
TTITLE7=Tu Y Yo
TTITLE8=Maldito Amor
TTITLE9=Pobre Niña Rica
TTITLE10=Miedo
TTITLE11=El Primer Amor
TTITLE12=Una Historia Mas
TTITLE13=La Chica Dorada
TTITLE14=Tu Solo Tu
EXTD=
EXTT0=
EXTT1=
EXTT2=
EXTT3=
EXTT4=
EXTT5=
EXTT6=
EXTT7=
EXTT8=
EXTT9=
EXTT10=
EXTT11=
EXTT12=
EXTT13=
EXTT14=
PLAYORDER=
